<?xml version="1.0" standalone="no"?>
<!DOCTYPE svg PUBLIC "-//W3C//DTD SVG 20010904//EN"
 "http://www.w3.org/TR/2001/REC-SVG-20010904/DTD/svg10.dtd">
<svg version="1.0" xmlns="http://www.w3.org/2000/svg"
 width="768.000000pt" height="768.000000pt" viewBox="0 0 768.000000 768.000000"
 preserveAspectRatio="xMidYMid meet">
<metadata>
Created by potrace 1.14, written by Peter Selinger 2001-2017
</metadata>
<g transform="translate(0.000000,768.000000) scale(0.100000,-0.100000)"
fill="#000000" stroke="none">
<path d="M4295 6628 c-112 -10 -177 -28 -282 -80 -71 -34 -84 -45 -91 -72 -12
-43 -6 -53 36 -60 88 -16 141 -30 137 -36 -6 -9 -462 -12 -488 -4 -18 6 -18 6
0 19 25 17 86 33 149 38 67 6 76 11 63 41 -26 55 -150 96 -294 96 -113 0 -192
-17 -274 -58 -69 -34 -86 -58 -66 -92 36 -62 43 -85 33 -103 -9 -18 -62 -45
-102 -53 -84 -16 -134 -25 -153 -30 -29 -6 -29 8 0 22 40 20 142 77 151 84 4
5 -4 31 -19 58 -30 55 -44 61 -125 55 -103 -7 -189 -51 -268 -137 l-42 -46 31
-55 c41 -72 57 -140 54 -216 -3 -65 -23 -149 -35 -149 -4 0 -10 43 -13 96 -13
190 -87 273 -272 301 -66 11 -190 7 -242 -7 -72 -19 -136 -57 -155 -91 -37
-64 -12 -161 49 -192 15 -8 69 -24 118 -37 170 -43 248 -80 299 -141 25 -30
28 -39 23 -89 -3 -30 -8 -64 -11 -75 -5 -17 4 -25 56 -50 35 -16 84 -44 110
-62 55 -38 52 -42 63 77 23 237 80 359 220 467 86 66 245 128 385 150 105 16
434 9 518 -12 12 -3 32 -7 44 -10 155 -34 332 -127 413 -217 48 -54 100 -152
108 -206 3 -19 7 -36 9 -38 2 -2 37 29 78 67 166 156 249 201 405 216 143 14
228 6 356 -31 197 -57 341 -133 458 -241 148 -137 193 -277 148 -457 -11 -43
-18 -80 -16 -82 2 -2 38 -6 79 -10 249 -20 442 -110 591 -276 l64 -70 65 40
c128 77 151 114 145 225 -5 79 -36 151 -90 207 -52 54 -111 82 -215 104 -14 3
-41 9 -60 13 -62 14 -148 13 -156 -1 -5 -7 -8 -60 -7 -118 2 -119 -1 -120 -60
-1 -25 52 -31 76 -32 132 0 63 2 71 30 97 17 16 47 39 69 52 l38 23 -6 -39 -7
-39 108 -21 c59 -11 113 -19 119 -16 15 4 -3 88 -30 145 -36 75 -180 172 -326
221 -46 15 -315 84 -360 93 -14 2 -54 11 -90 19 -36 9 -74 17 -85 20 -19 3
-31 6 -95 20 -14 3 -36 7 -50 10 -47 10 -33 14 46 15 222 2 293 5 300 12 14
13 -55 138 -106 191 -107 112 -227 157 -427 159 -71 1 -126 -2 -131 -8 -13
-13 7 -146 22 -149 23 -7 192 -68 221 -81 17 -8 43 -19 59 -25 49 -18 25 -18
-89 0 -288 47 -470 43 -673 -16 -86 -25 -180 -71 -219 -107 -13 -11 -25 -19
-26 -16 -15 17 -144 259 -139 259 4 0 34 -28 66 -61 82 -82 84 -83 136 -47
104 70 222 103 415 113 131 8 129 6 122 58 -13 97 -222 233 -451 293 -102 27
-196 33 -331 22z"/>
<path d="M3368 6089 c-114 -19 -243 -64 -303 -104 -20 -14 -39 -25 -43 -25
-17 0 -112 -113 -131 -156 -47 -106 -49 -124 -66 -694 -8 -270 -19 -391 -41
-479 -20 -75 -77 -191 -111 -225 -27 -27 -92 -60 -101 -52 -2 3 10 27 27 53
74 112 108 312 126 756 l7 147 -29 31 c-92 99 -257 177 -433 205 -55 8 -211 8
-239 -1 -10 -3 -30 -8 -43 -10 -57 -11 -156 -71 -214 -130 -136 -138 -198
-324 -197 -590 0 -77 11 -258 19 -320 8 -65 16 -163 17 -213 2 -67 -15 -84
-71 -71 -36 9 -128 19 -204 23 -20 1 -40 4 -43 8 -7 6 65 35 105 42 14 2 44 9
67 15 l42 11 -5 73 c-7 114 -44 145 -175 146 -55 1 -72 -3 -110 -27 -118 -76
-198 -226 -203 -385 -4 -124 20 -233 84 -372 15 -33 43 -94 62 -135 19 -41 47
-106 62 -145 16 -38 32 -79 36 -90 16 -38 39 -120 56 -195 42 -187 -25 -391
-142 -436 -24 -9 -47 -14 -50 -11 -4 3 10 29 31 57 119 162 95 379 -82 760
-20 41 -43 94 -53 117 -18 39 -22 42 -77 52 -283 54 -462 183 -518 374 -9 31
-19 57 -23 57 -12 0 -144 -218 -197 -325 -83 -163 -105 -245 -109 -403 -3 -90
19 -172 72 -263 46 -80 148 -193 208 -230 l32 -19 59 58 c55 55 101 90 187
142 46 28 43 22 -42 -84 -36 -44 -81 -114 -101 -155 -31 -67 -36 -86 -38 -167
-2 -72 2 -107 21 -166 53 -172 182 -313 341 -374 52 -20 207 -26 285 -11 102
18 201 85 375 250 61 58 111 104 113 102 2 -2 -9 -34 -25 -72 -29 -68 -85
-157 -140 -222 l-30 -35 23 -70 c88 -277 249 -412 545 -459 108 -16 396 -12
497 8 77 16 69 2 68 132 -1 125 7 211 27 308 18 84 28 58 42 -105 21 -249 33
-309 78 -394 41 -77 140 -176 224 -223 78 -43 209 -90 278 -99 96 -12 257 -11
262 2 2 7 -7 44 -21 83 -33 92 -43 178 -46 411 -2 131 -1 144 4 139 4 -4 36
-137 52 -214 2 -11 6 -29 8 -40 2 -11 9 -40 16 -65 7 -25 13 -52 15 -60 6 -32
47 -145 66 -182 21 -42 98 -123 144 -153 92 -60 272 -127 375 -140 95 -12 401
-6 460 10 8 2 35 7 60 10 77 11 182 45 264 88 182 94 313 295 292 447 -11 80
-87 275 -200 514 -31 65 -55 121 -52 123 5 6 102 -116 160 -202 65 -96 138
-247 177 -366 32 -99 33 -100 78 -120 73 -32 190 -67 262 -79 78 -12 321 -16
364 -7 17 4 39 9 50 11 49 10 155 50 215 83 163 89 299 238 374 413 88 203
174 290 426 430 315 176 431 297 496 515 24 83 25 374 0 492 -49 238 -214 585
-297 626 -77 37 -106 -1 -244 -313 -47 -107 -97 -217 -110 -245 -13 -27 -53
-113 -89 -190 -36 -77 -66 -134 -66 -128 0 7 21 104 46 215 25 112 48 214 51
228 47 221 35 461 -34 670 -23 72 -120 277 -165 350 -170 275 -290 374 -518
424 -31 7 -98 12 -149 12 l-94 -1 -8 -30 c-5 -16 -11 -45 -14 -65 -3 -19 -9
-53 -13 -75 -4 -22 -7 -101 -6 -175 0 -118 5 -152 34 -270 43 -175 47 -284 11
-353 -23 -44 -57 -85 -65 -76 -2 2 3 44 10 93 16 104 13 136 -28 316 -16 74
-32 149 -35 165 -3 17 -8 48 -12 70 -8 48 -7 151 3 220 4 28 10 66 12 85 3 19
21 107 41 195 63 275 51 339 -83 470 -126 124 -311 213 -512 248 -363 63 -528
-40 -809 -498 -162 -266 -268 -542 -318 -831 -23 -132 -25 -163 -27 -328 0
-86 -5 -142 -9 -133 -10 18 -36 125 -44 182 -6 48 -7 220 0 255 2 14 11 63 19
110 46 261 86 375 239 690 41 85 83 181 92 213 40 137 6 285 -84 365 -78 70
-293 157 -446 183 -119 19 -289 18 -407 -2z m-162 -909 c-15 -58 -84 -354 -92
-395 -2 -11 -8 -40 -14 -65 -5 -25 -12 -56 -14 -70 -3 -14 -14 -72 -24 -130
-39 -205 -45 -272 -46 -490 0 -167 8 -319 19 -367 3 -13 7 -31 9 -41 53 -236
194 -444 351 -519 124 -58 249 -85 410 -85 197 -1 203 1 302 93 76 71 133 110
207 144 87 40 251 91 336 105 122 20 206 56 261 112 27 27 49 54 49 60 0 5 8
22 19 36 10 15 21 38 24 52 3 14 11 44 16 68 23 91 16 222 -24 427 -13 66 -26
138 -29 160 -4 22 -10 65 -16 95 -17 106 1 383 24 359 2 -2 7 -44 10 -94 4
-49 9 -108 11 -130 3 -22 7 -56 10 -75 11 -94 47 -262 95 -445 55 -209 21
-413 -91 -556 -32 -39 -36 -49 -22 -50 10 0 25 -2 33 -3 8 -2 38 -6 65 -10
121 -15 226 -45 306 -87 58 -31 134 -97 163 -141 18 -27 23 -28 141 -12 28 4
52 7 55 7 11 0 107 36 135 51 44 23 121 89 166 143 58 70 94 137 128 238 31
94 34 104 56 225 22 122 25 141 31 220 9 106 20 128 30 65 13 -85 8 -293 -11
-385 -3 -14 -8 -41 -11 -60 -12 -63 -73 -228 -105 -282 -72 -122 -154 -204
-254 -253 -61 -31 -182 -68 -252 -78 -12 -2 -25 -6 -28 -9 -4 -3 1 -39 9 -79
17 -83 23 -172 32 -434 10 -311 16 -376 40 -433 34 -82 -16 -25 -65 75 -38 76
-46 122 -56 328 -17 360 -29 439 -78 545 -33 71 -103 148 -164 178 -44 23
-152 57 -209 67 -21 3 -52 9 -69 11 -37 7 -342 6 -371 0 -12 -2 -44 -7 -72
-11 -116 -14 -313 -94 -388 -157 -232 -193 -294 -435 -173 -678 49 -98 203
-337 239 -370 9 -9 76 -94 84 -108 21 -36 -39 16 -156 135 -149 151 -163 167
-215 253 -108 179 -132 320 -83 496 11 42 18 79 16 82 -3 3 -61 6 -128 7 -125
2 -206 10 -255 24 -77 22 -209 -15 -326 -93 -120 -79 -202 -220 -226 -386 -16
-110 -4 -382 25 -570 5 -34 5 -34 -11 -15 -44 52 -96 211 -111 340 -6 55 -7
90 -1 275 l2 65 -50 12 c-91 23 -258 41 -350 38 -148 -5 -251 -42 -393 -139
-83 -56 -83 -56 -55 -19 28 37 64 80 116 137 43 48 87 145 90 201 7 98 -47
225 -117 278 -128 98 -299 128 -480 85 -43 -10 -81 -17 -83 -15 -4 4 78 57
124 81 18 9 37 24 42 34 14 27 5 124 -16 171 -22 50 -94 136 -151 182 -36 29
-39 34 -23 37 31 5 141 -52 192 -100 25 -24 56 -62 68 -86 20 -40 44 -168 34
-184 -2 -5 4 -8 14 -9 119 -7 163 -18 256 -65 73 -37 167 -135 204 -213 28
-58 30 -70 27 -155 -1 -51 -8 -104 -13 -120 -16 -41 -14 -49 12 -41 48 15 118
20 262 20 150 -1 210 -6 275 -25 44 -13 70 -13 70 0 0 14 59 109 90 144 66 76
148 143 232 186 l46 24 -31 22 c-117 82 -203 185 -272 328 -48 98 -90 234
-102 325 -10 70 -9 457 1 531 20 154 28 206 51 330 14 74 30 153 35 175 5 22
16 76 25 120 45 215 84 329 134 386 33 37 36 26 17 -51z m-1131 -307 c22 -53
17 -154 -12 -239 -36 -105 -90 -285 -98 -324 -16 -83 -14 -205 4 -275 24 -94
89 -225 153 -310 57 -76 207 -230 306 -314 64 -55 72 -70 48 -90 -10 -9 -25
-3 -67 25 -30 21 -56 40 -59 44 -3 4 -12 11 -21 16 -36 20 -119 93 -202 178
-105 106 -185 224 -235 343 -37 88 -37 88 -37 233 0 122 4 158 24 228 13 45
27 85 32 88 5 3 9 13 9 22 0 9 7 30 15 46 29 55 83 212 100 289 9 42 19 77 21
77 2 0 11 -17 19 -37z m5116 -1760 c-78 -153 -127 -227 -198 -300 -102 -105
-220 -177 -342 -209 -114 -29 -272 -22 -376 18 -49 18 -255 121 -251 125 2 2
46 -7 97 -21 187 -50 305 -61 429 -38 161 29 283 98 426 240 49 48 98 99 109
113 79 97 157 189 161 189 3 0 -22 -53 -55 -117z"/>
<path d="M1460 5974 c-98 -21 -185 -78 -255 -169 -48 -64 -78 -123 -135 -274
-63 -167 -85 -206 -150 -271 -42 -42 -90 -73 -199 -130 -79 -41 -166 -94 -192
-118 -52 -46 -103 -139 -116 -208 -14 -76 -5 -278 15 -349 l9 -30 17 40 c24
57 143 260 161 275 13 11 14 8 9 -21 -9 -45 -41 -136 -64 -179 -10 -19 -30
-73 -45 -120 -86 -274 12 -471 279 -561 93 -31 146 -37 146 -16 0 6 -5 28 -11
47 -21 69 -26 243 -10 327 32 162 139 319 262 385 40 21 57 23 174 23 l130 0
1 190 c1 328 33 441 180 643 9 12 15 24 13 25 -2 1 -31 16 -64 32 -59 30 -95
57 -95 73 0 5 26 5 58 1 31 -5 82 -11 112 -15 30 -3 62 -8 72 -9 9 -2 51 14
95 35 43 22 94 42 113 46 62 11 283 11 353 -1 64 -11 69 -10 83 9 19 28 18 49
-7 80 -27 34 -94 61 -207 82 -41 8 -115 35 -221 81 -58 25 -127 51 -155 58
-116 30 -263 38 -356 19z m-313 -711 c-2 -199 -6 -212 -74 -250 -57 -32 -116
-44 -224 -48 -98 -3 -120 5 -57 20 18 4 38 9 43 10 45 11 174 73 192 93 22 24
38 84 47 179 3 34 16 74 38 113 18 33 34 60 35 60 2 0 2 -80 0 -177z"/>
<path d="M6875 4973 c-41 -58 -79 -84 -169 -118 -118 -44 -113 -33 -52 -133
57 -91 90 -149 113 -194 17 -34 18 -34 69 -4 42 24 104 48 104 41 0 -3 -20
-34 -45 -71 -55 -79 -56 -98 -16 -255 16 -63 32 -145 36 -183 11 -115 15 -117
63 -43 54 83 95 123 146 140 110 36 208 -49 323 -282 l62 -125 21 46 c97 220
66 453 -80 600 -34 34 -65 57 -68 52 -18 -26 -81 -63 -117 -68 -22 -3 -69 1
-105 10 -36 8 -77 17 -92 21 -51 10 -21 18 76 21 124 3 142 10 156 62 14 51
14 198 0 269 -11 59 -44 123 -82 158 -30 29 -116 66 -199 87 -97 24 -104 22
-144 -31z"/>
</g>
</svg>
